<?xml version="1.0" encoding="utf-8"?>
<!-- Generator: Adobe Illustrator 16.0.0, SVG Export Plug-In . SVG Version: 6.00 Build 0)  -->
<!DOCTYPE svg PUBLIC "-//W3C//DTD SVG 1.1//EN" "http://www.w3.org/Graphics/SVG/1.1/DTD/svg11.dtd">
<svg version="1.1" id="Layer_1" xmlns="http://www.w3.org/2000/svg" xmlns:xlink="http://www.w3.org/1999/xlink" x="0px" y="0px"
	 width="355.5px" height="64px" viewBox="0 0 355.5 64" enable-background="new 0 0 355.5 64" xml:space="preserve">
<g>
	<g>
		<path fill="#FFFFFF" d="M72.952,11.736l13.38,33.393l13.38-33.393h6.999v40.926h-5.397V36.725l0.506-17.203l-13.436,33.14h-4.132
			L70.844,19.606l0.534,17.119v15.938h-5.397V11.736H72.952z"/>
		<path fill="#FFFFFF" d="M144.901,33.521c0,4.01-0.675,7.509-2.024,10.499s-3.261,5.271-5.734,6.845s-5.359,2.361-8.657,2.361
			c-3.224,0-6.082-0.792-8.573-2.376c-2.493-1.583-4.427-3.841-5.805-6.774c-1.377-2.932-2.085-6.328-2.122-10.189v-2.951
			c0-3.935,0.684-7.411,2.052-10.428c1.368-3.017,3.303-5.327,5.805-6.929c2.501-1.602,5.364-2.403,8.587-2.403
			c3.279,0,6.17,0.792,8.672,2.375c2.501,1.583,4.427,3.879,5.776,6.887c1.349,3.007,2.024,6.507,2.024,10.499V33.521z
			 M139.532,30.878c0-4.854-0.975-8.578-2.923-11.173c-1.949-2.595-4.676-3.893-8.18-3.893c-3.411,0-6.095,1.298-8.053,3.893
			c-1.958,2.596-2.966,6.198-3.022,10.808v3.008c0,4.704,0.988,8.4,2.965,11.088c1.977,2.689,4.699,4.034,8.166,4.034
			c3.485,0,6.184-1.27,8.095-3.809c1.911-2.539,2.895-6.18,2.951-10.92V30.878z"/>
		<path fill="#FFFFFF" d="M150.175,52.663V11.736h11.553c3.561,0,6.709,0.787,9.445,2.361c2.734,1.574,4.848,3.814,6.338,6.718
			c1.49,2.905,2.244,6.24,2.262,10.007v2.614c0,3.86-0.744,7.243-2.234,10.147s-3.617,5.135-6.381,6.689
			c-2.764,1.556-5.982,2.353-9.654,2.39H150.175z M155.572,16.149v32.1h5.677c4.16,0,7.398-1.294,9.713-3.882
			c2.313-2.589,3.471-6.274,3.471-11.057v-2.392c0-4.651-1.092-8.266-3.275-10.845c-2.182-2.579-5.279-3.887-9.289-3.925H155.572z"
			/>
		<path fill="#FFFFFF" d="M208.238,33.746h-17.736V48.25h20.604v4.413h-26.001V11.736h25.72v4.413h-20.322v13.183h17.736V33.746z"/>
		<path fill="#FFFFFF" d="M220.428,48.25h19.395v4.413h-24.82V11.736h5.426V48.25z"/>
		<path fill="#FFFFFF" d="M274.612,52.663h-5.425V33.746h-20.632v18.917h-5.397V11.736h5.397v17.596h20.632V11.736h5.425V52.663z"/>
		<path fill="#FFFFFF" d="M310.188,11.736v27.828c-0.019,3.86-1.232,7.018-3.64,9.473c-2.408,2.455-5.674,3.832-9.796,4.132
			l-1.434,0.057c-4.48,0-8.049-1.209-10.71-3.627c-2.66-2.417-4.01-5.743-4.047-9.979V11.736h5.341v27.715
			c0,2.961,0.814,5.261,2.445,6.9c1.63,1.64,3.953,2.459,6.971,2.459c3.054,0,5.392-0.814,7.013-2.445
			c1.621-1.63,2.432-3.926,2.432-6.887V11.736H310.188z"/>
		<path fill="#FFFFFF" d="M315.884,52.663V11.736h13.38c4.441,0,7.781,0.918,10.021,2.754c2.238,1.837,3.358,4.554,3.358,8.152
			c0,1.911-0.544,3.603-1.63,5.074c-1.087,1.471-2.567,2.609-4.441,3.415c2.211,0.618,3.958,1.794,5.242,3.527
			c1.283,1.733,1.926,3.8,1.926,6.198c0,3.673-1.19,6.559-3.57,8.657c-2.38,2.1-5.743,3.148-10.091,3.148H315.884z M321.281,29.192
			h8.151c2.361,0,4.249-0.591,5.664-1.774c1.414-1.183,2.122-2.789,2.122-4.817c0-2.253-0.656-3.892-1.968-4.916
			c-1.312-1.023-3.308-1.535-5.987-1.535h-7.982V29.192z M321.281,33.521V48.25h8.91c2.511,0,4.493-0.651,5.945-1.954
			c1.452-1.302,2.179-3.096,2.179-5.383c0-4.928-2.681-7.392-8.04-7.392H321.281z"/>
	</g>
</g>
<g>
	<path fill="#FFFFFF" d="M348.883,7.917v48.166H59.625V7.917H348.883 M351.883,4.917H56.625v54.166h295.258V4.917L351.883,4.917z"/>
</g>
<rect x="4.925" y="4.917" fill="#FFFFFF" width="54.167" height="54.166"/>
<g>
	<g>
		<g>
			<path fill="#009688" d="M28.017,41.429c-0.317-0.165-0.575-0.008-0.575,0.348v9.305c0,0.355,0.258,0.779,0.575,0.943l3.246,1.672
				c0.316,0.166,0.834,0.166,1.15,0l3.249-1.672c0.315-0.164,0.575-0.588,0.575-0.943v-9.305c0-0.355-0.259-0.513-0.575-0.349
				l-3.249,1.685c-0.315,0.166-0.833,0.166-1.15,0L28.017,41.429z"/>
		</g>
		<g>
			<path fill="#009688" d="M45.488,10.57c-0.321-0.153-0.846-0.154-1.168-0.001L32.42,16.251c-0.32,0.154-0.845,0.154-1.167-0.002
				l-11.838-5.68c-0.321-0.154-0.847-0.154-1.168,0l-7.687,3.688c-0.321,0.152-0.584,0.57-0.584,0.926v26.908
				c0,0.355,0.259,0.781,0.576,0.945l7.647,3.943c0.317,0.166,0.575,0.008,0.575-0.35V21.401c0-0.356,0.264-0.524,0.586-0.373
				l7.496,3.514c0.321,0.151,0.586,0.564,0.586,0.921v7.298c0,0.356,0.258,0.782,0.574,0.948l3.249,1.703
				c0.314,0.164,0.832,0.164,1.147,0l3.25-1.703c0.315-0.166,0.573-0.592,0.573-0.948v-7.298c0-0.356,0.263-0.77,0.585-0.921
				l7.497-3.514c0.324-0.151,0.585,0.017,0.585,0.373V46.63c0,0.357,0.259,0.514,0.576,0.35l7.643-3.953
				c0.315-0.164,0.574-0.59,0.574-0.945V15.179c0-0.355-0.263-0.773-0.582-0.928L45.488,10.57z"/>
		</g>
	</g>
</g>
</svg>
